# Blender 3.4.1
# www.blender.org
mtllib HalfSphere.mtl
o Sphere
v 0.000000 0.000000 -1.000000
v 0.000000 -0.382683 -0.923880
v 0.000000 -0.923880 -0.382683
v 0.382683 0.000000 -0.923880
v 0.353553 -0.382683 -0.853553
v 0.270598 -0.707107 -0.653281
v 0.146447 -0.923880 -0.353553
v 0.707107 0.000000 -0.707107
v 0.653281 -0.382683 -0.653281
v 0.500000 -0.707107 -0.500000
v 0.270598 -0.923880 -0.270598
v 0.923880 0.000000 -0.382683
v 0.853553 -0.382683 -0.353553
v 0.653281 -0.707107 -0.270598
v 0.353553 -0.923880 -0.146447
v 1.000000 0.000000 0.000000
v 0.923879 -0.382683 0.000000
v 0.707107 -0.707107 0.000000
v 0.382683 -0.923880 0.000000
v 0.923879 0.000000 0.382684
v 0.853553 -0.382683 0.353554
v 0.653281 -0.707107 0.270598
v 0.353553 -0.923880 0.146447
v 0.707107 0.000000 0.707107
v 0.653281 -0.382683 0.653282
v 0.500000 -0.707107 0.500000
v 0.270598 -0.923880 0.270598
v 0.382683 0.000000 0.923880
v 0.353553 -0.382683 0.853553
v 0.270598 -0.707107 0.653281
v 0.146447 -0.923880 0.353553
v -0.000000 0.000000 1.000000
v -0.000000 -0.382683 0.923879
v -0.000000 -0.707107 0.707107
v -0.000000 -0.923880 0.382683
v 0.000000 -1.000000 0.000000
v -0.382684 0.000000 0.923879
v -0.353554 -0.382683 0.853553
v -0.270598 -0.707107 0.653281
v -0.146447 -0.923880 0.353553
v -0.707107 0.000000 0.707106
v -0.653282 -0.382683 0.653281
v -0.500000 -0.707107 0.500000
v -0.270598 -0.923880 0.270598
v -0.923880 0.000000 0.382683
v -0.853553 -0.382683 0.353553
v -0.653282 -0.707107 0.270598
v -0.353553 -0.923880 0.146446
v -1.000000 0.000000 -0.000001
v -0.923879 -0.382683 -0.000000
v -0.707107 -0.707107 -0.000000
v -0.382683 -0.923880 -0.000000
v -0.923879 0.000000 -0.382684
v -0.853553 -0.382683 -0.353554
v -0.653281 -0.707107 -0.270598
v -0.353553 -0.923880 -0.146447
v -0.707106 0.000000 -0.707107
v -0.653281 -0.382683 -0.653282
v -0.500000 -0.707107 -0.500000
v -0.270598 -0.923880 -0.270598
v -0.382683 0.000000 -0.923880
v -0.353553 -0.382683 -0.853553
v -0.270598 -0.707107 -0.653281
v -0.146446 -0.923880 -0.353554
v 0.000000 -0.707107 -0.707107
v 0.293045 0.000000 0.662580
v 0.530330 0.000000 0.219670
v 0.675729 0.000000 -0.261300
v -0.207107 0.000000 0.500000
v -0.000000 0.000000 -0.000000
v 0.207107 0.000000 -0.500000
v -0.675729 0.000000 0.261300
v -0.530330 0.000000 -0.219670
v -0.293046 0.000000 -0.662580
vn -0.0000 -0.1951 -0.9808
vn 0.3549 -0.3744 -0.8567
vn -0.0000 -0.3744 -0.9273
vn -0.0000 -1.0000 -0.0000
vn -0.0000 -0.9152 -0.4031
vn 0.1543 -0.9152 -0.3724
vn -0.0000 -0.6952 -0.7189
vn 0.2751 -0.6952 -0.6641
vn 0.2850 -0.9152 -0.2850
vn 0.5083 -0.6952 -0.5083
vn 0.3753 -0.1951 -0.9061
vn 0.6557 -0.3744 -0.6557
vn 0.6641 -0.6952 -0.2751
vn 0.3724 -0.9152 -0.1543
vn 0.6935 -0.1951 -0.6935
vn 0.8567 -0.3744 -0.3549
vn 0.4031 -0.9152 -0.0000
vn 0.9061 -0.1951 -0.3753
vn 0.9273 -0.3744 -0.0000
vn 0.7189 -0.6952 -0.0000
vn 0.3724 -0.9152 0.1543
vn 0.8567 -0.3744 0.3549
vn 0.6641 -0.6952 0.2751
vn 0.9808 -0.1951 -0.0000
vn 0.6557 -0.3744 0.6557
vn 0.5083 -0.6952 0.5083
vn 0.2850 -0.9152 0.2850
vn 0.9061 -0.1951 0.3753
vn 0.1543 -0.9152 0.3724
vn 0.6935 -0.1951 0.6935
vn 0.3549 -0.3744 0.8567
vn 0.2751 -0.6952 0.6641
vn 0.3753 -0.1951 0.9061
vn -0.0000 -0.3744 0.9273
vn -0.0000 -0.9152 0.4031
vn -0.0000 -0.6952 0.7189
vn -0.1543 -0.9152 0.3724
vn -0.3549 -0.3744 0.8567
vn -0.2751 -0.6952 0.6641
vn -0.0000 -0.1951 0.9808
vn -0.2850 -0.9152 0.2850
vn -0.3753 -0.1951 0.9061
vn -0.6557 -0.3744 0.6557
vn -0.5083 -0.6952 0.5083
vn -0.3724 -0.9152 0.1543
vn -0.6935 -0.1951 0.6935
vn -0.8567 -0.3744 0.3549
vn -0.6641 -0.6952 0.2751
vn -0.4031 -0.9152 -0.0000
vn -0.9273 -0.3744 -0.0000
vn -0.7189 -0.6952 -0.0000
vn -0.9061 -0.1951 0.3753
vn -0.3724 -0.9152 -0.1543
vn -0.8567 -0.3744 -0.3549
vn -0.6641 -0.6952 -0.2751
vn -0.9808 -0.1951 -0.0000
vn -0.2850 -0.9152 -0.2850
vn -0.9061 -0.1951 -0.3753
vn -0.6557 -0.3744 -0.6557
vn -0.5083 -0.6952 -0.5083
vn -0.2751 -0.6952 -0.6641
vn -0.1543 -0.9152 -0.3724
vn -0.6935 -0.1951 -0.6935
vn -0.3549 -0.3744 -0.8567
vn -0.3753 -0.1951 -0.9061
vn -0.0000 1.0000 -0.0000
vt 0.750000 0.500000
vt 0.750000 0.375000
vt 0.750000 0.125000
vt 0.687500 0.500000
vt 0.687500 0.375000
vt 0.687500 0.250000
vt 0.687500 0.125000
vt 0.625000 0.500000
vt 0.625000 0.375000
vt 0.625000 0.250000
vt 0.625000 0.125000
vt 0.562500 0.500000
vt 0.562500 0.375000
vt 0.562500 0.250000
vt 0.562500 0.125000
vt 0.500000 0.500000
vt 0.500000 0.375000
vt 0.500000 0.250000
vt 0.500000 0.125000
vt 0.437500 0.500000
vt 0.437500 0.375000
vt 0.437500 0.250000
vt 0.437500 0.125000
vt 0.375000 0.500000
vt 0.375000 0.375000
vt 0.375000 0.250000
vt 0.375000 0.125000
vt 0.312500 0.500000
vt 0.312500 0.375000
vt 0.312500 0.250000
vt 0.312500 0.125000
vt 0.250000 0.500000
vt 0.250000 0.375000
vt 0.250000 0.250000
vt 0.250000 0.125000
vt 0.718750 0.000000
vt 0.656250 0.000000
vt 0.593750 0.000000
vt 0.531250 0.000000
vt 0.468750 0.000000
vt 0.406250 0.000000
vt 0.343750 0.000000
vt 0.281250 0.000000
vt 0.218750 0.000000
vt 0.156250 0.000000
vt 0.093750 0.000000
vt 0.031250 0.000000
vt 0.968750 0.000000
vt 0.906250 0.000000
vt 0.843750 0.000000
vt 0.781250 0.000000
vt 0.187500 0.500000
vt 0.187500 0.375000
vt 0.187500 0.250000
vt 0.187500 0.125000
vt 0.125000 0.500000
vt 0.125000 0.375000
vt 0.125000 0.250000
vt 0.125000 0.125000
vt 0.062500 0.500000
vt 0.062500 0.375000
vt 0.062500 0.250000
vt 0.062500 0.125000
vt 0.000000 0.500000
vt 1.000000 0.500000
vt 0.000000 0.375000
vt 1.000000 0.375000
vt 0.000000 0.250000
vt 1.000000 0.250000
vt 0.000000 0.125000
vt 1.000000 0.125000
vt 0.937500 0.500000
vt 0.937500 0.375000
vt 0.937500 0.250000
vt 0.937500 0.125000
vt 0.875000 0.500000
vt 0.875000 0.375000
vt 0.875000 0.250000
vt 0.875000 0.125000
vt 0.812500 0.500000
vt 0.812500 0.375000
vt 0.812500 0.250000
vt 0.812500 0.125000
vt 0.750000 0.250000
vt 0.312500 0.500000
vt 0.437500 0.500000
vt 0.508929 0.500000
vt 0.562500 0.500000
vt 0.258929 0.500000
vt 0.473214 0.500000
vt 0.562500 0.500000
vt 0.616071 0.500000
vt 0.187500 0.500000
vt 0.562500 0.500000
vt 0.651786 0.500000
vt 0.687500 0.500000
s 1
f 1/1/1 5/5/2 2/2/3
f 36/36/4 3/3/5 7/7/6
f 65/84/7 5/5/2 6/6/8
f 65/84/7 7/7/6 3/3/5
f 36/37/4 7/7/6 11/11/9
f 5/5/2 10/10/10 6/6/8
f 7/7/6 10/10/10 11/11/9
f 4/4/11 9/9/12 5/5/2
f 11/11/9 14/14/13 15/15/14
f 8/8/15 13/13/16 9/9/12
f 36/38/4 11/11/9 15/15/14
f 9/9/12 14/14/13 10/10/10
f 14/14/13 19/19/17 15/15/14
f 12/12/18 17/17/19 13/13/16
f 36/39/4 15/15/14 19/19/17
f 13/13/16 18/18/20 14/14/13
f 36/40/4 19/19/17 23/23/21
f 18/18/20 21/21/22 22/22/23
f 18/18/20 23/23/21 19/19/17
f 16/16/24 21/21/22 17/17/19
f 22/22/23 25/25/25 26/26/26
f 22/22/23 27/27/27 23/23/21
f 20/20/28 25/25/25 21/21/22
f 36/41/4 23/23/21 27/27/27
f 26/26/26 31/31/29 27/27/27
f 24/24/30 29/29/31 25/25/25
f 36/42/4 27/27/27 31/31/29
f 26/26/26 29/29/31 30/30/32
f 28/28/33 33/33/34 29/29/31
f 36/43/4 31/31/29 35/35/35
f 30/30/32 33/33/34 34/34/36
f 31/31/29 34/34/36 35/35/35
f 36/44/4 35/35/35 40/55/37
f 34/34/36 38/53/38 39/54/39
f 34/34/36 40/55/37 35/35/35
f 32/32/40 38/53/38 33/33/34
f 39/54/39 44/59/41 40/55/37
f 37/52/42 42/57/43 38/53/38
f 36/45/4 40/55/37 44/59/41
f 39/54/39 42/57/43 43/58/44
f 43/58/44 48/63/45 44/59/41
f 41/56/46 46/61/47 42/57/43
f 36/46/4 44/59/41 48/63/45
f 43/58/44 46/61/47 47/62/48
f 36/47/4 48/63/45 52/70/49
f 47/62/48 50/66/50 51/68/51
f 48/63/45 51/68/51 52/70/49
f 45/60/52 50/66/50 46/61/47
f 36/48/4 52/71/49 56/75/53
f 51/69/51 54/73/54 55/74/55
f 51/69/51 56/75/53 52/71/49
f 49/65/56 54/73/54 50/67/50
f 55/74/55 60/79/57 56/75/53
f 53/72/58 58/77/59 54/73/54
f 36/49/4 56/75/53 60/79/57
f 55/74/55 58/77/59 59/78/60
f 60/79/57 63/82/61 64/83/62
f 57/76/63 62/81/64 58/77/59
f 36/50/4 60/79/57 64/83/62
f 59/78/60 62/81/64 63/82/61
f 36/51/4 64/83/62 3/3/5
f 63/82/61 2/2/3 65/84/7
f 63/82/61 3/3/5 64/83/62
f 61/80/65 2/2/3 62/81/64
f 66/85/66 28/28/66 24/24/66
f 69/89/66 32/32/66 66/85/66
f 69/89/66 41/56/66 37/52/66
f 72/93/66 45/60/66 41/56/66
f 67/87/66 24/24/66 20/20/66
f 70/91/66 66/86/66 67/87/66
f 70/91/66 72/94/66 69/90/66
f 73/95/66 49/65/66 72/94/66
f 16/16/66 67/87/66 20/20/66
f 68/88/66 70/91/66 67/87/66
f 74/96/66 70/91/66 71/92/66
f 57/76/66 73/95/66 74/96/66
f 12/12/66 68/88/66 16/16/66
f 8/8/66 71/92/66 68/88/66
f 1/1/66 71/92/66 4/4/66
f 61/80/66 74/96/66 1/1/66
f 1/1/1 4/4/11 5/5/2
f 65/84/7 2/2/3 5/5/2
f 65/84/7 6/6/8 7/7/6
f 5/5/2 9/9/12 10/10/10
f 7/7/6 6/6/8 10/10/10
f 4/4/11 8/8/15 9/9/12
f 11/11/9 10/10/10 14/14/13
f 8/8/15 12/12/18 13/13/16
f 9/9/12 13/13/16 14/14/13
f 14/14/13 18/18/20 19/19/17
f 12/12/18 16/16/24 17/17/19
f 13/13/16 17/17/19 18/18/20
f 18/18/20 17/17/19 21/21/22
f 18/18/20 22/22/23 23/23/21
f 16/16/24 20/20/28 21/21/22
f 22/22/23 21/21/22 25/25/25
f 22/22/23 26/26/26 27/27/27
f 20/20/28 24/24/30 25/25/25
f 26/26/26 30/30/32 31/31/29
f 24/24/30 28/28/33 29/29/31
f 26/26/26 25/25/25 29/29/31
f 28/28/33 32/32/40 33/33/34
f 30/30/32 29/29/31 33/33/34
f 31/31/29 30/30/32 34/34/36
f 34/34/36 33/33/34 38/53/38
f 34/34/36 39/54/39 40/55/37
f 32/32/40 37/52/42 38/53/38
f 39/54/39 43/58/44 44/59/41
f 37/52/42 41/56/46 42/57/43
f 39/54/39 38/53/38 42/57/43
f 43/58/44 47/62/48 48/63/45
f 41/56/46 45/60/52 46/61/47
f 43/58/44 42/57/43 46/61/47
f 47/62/48 46/61/47 50/66/50
f 48/63/45 47/62/48 51/68/51
f 45/60/52 49/64/56 50/66/50
f 51/69/51 50/67/50 54/73/54
f 51/69/51 55/74/55 56/75/53
f 49/65/56 53/72/58 54/73/54
f 55/74/55 59/78/60 60/79/57
f 53/72/58 57/76/63 58/77/59
f 55/74/55 54/73/54 58/77/59
f 60/79/57 59/78/60 63/82/61
f 57/76/63 61/80/65 62/81/64
f 59/78/60 58/77/59 62/81/64
f 63/82/61 62/81/64 2/2/3
f 63/82/61 65/84/7 3/3/5
f 61/80/65 1/1/1 2/2/3
f 66/85/66 32/32/66 28/28/66
f 69/89/66 37/52/66 32/32/66
f 69/89/66 72/93/66 41/56/66
f 72/93/66 49/64/66 45/60/66
f 67/87/66 66/86/66 24/24/66
f 70/91/66 69/90/66 66/86/66
f 70/91/66 73/95/66 72/94/66
f 73/95/66 53/72/66 49/65/66
f 16/16/66 68/88/66 67/87/66
f 68/88/66 71/92/66 70/91/66
f 74/96/66 73/95/66 70/91/66
f 57/76/66 53/72/66 73/95/66
f 12/12/66 8/8/66 68/88/66
f 8/8/66 4/4/66 71/92/66
f 1/1/66 74/96/66 71/92/66
f 61/80/66 57/76/66 74/96/66
